<svg width="88" height="17" viewBox="0 0 88 17" xmlns="http://www.w3.org/2000/svg"><title>Group 2</title><g fill="#FFF" fill-rule="evenodd"><path d="M35.97 5.688h-3.424V3.576h9.36v2.112h-3.424V15H35.97V5.688zM51.158 15h-2.336L47.35 9.448h-.032L45.91 15h-2.352l-2.624-8.272h2.4l1.52 5.616h.032l1.376-5.616h2.208l1.408 5.6h.032l1.52-5.6h2.336L51.158 15zm6.404-9.552V3.576H55.29v1.872h2.272zm-2.272 1.28V15h2.272V6.728H55.29zm7.444 0v-2.48h-2.272v2.48h-1.376v1.52h1.376v4.88c0 .416.07.752.208 1.008.139.256.328.453.568.592.24.139.517.232.832.28.315.048.648.072 1 .072.224 0 .453-.005.688-.016.235-.01.448-.032.64-.064v-1.76a3.183 3.183 0 0 1-.336.048 4.32 4.32 0 0 1-.368.016c-.384 0-.64-.064-.768-.192s-.192-.384-.192-.768V8.248h1.664v-1.52h-1.664zm6.132 0v-2.48h-2.272v2.48h-1.376v1.52h1.376v4.88c0 .416.07.752.208 1.008.139.256.328.453.568.592.24.139.517.232.832.28.315.048.648.072 1 .072.224 0 .453-.005.688-.016.235-.01.448-.032.64-.064v-1.76a3.183 3.183 0 0 1-.336.048 4.32 4.32 0 0 1-.368.016c-.384 0-.64-.064-.768-.192s-.192-.384-.192-.768V8.248h1.664v-1.52h-1.664zm8.82 3.248c-.107-.576-.296-1.013-.568-1.312-.272-.299-.685-.448-1.24-.448-.363 0-.664.061-.904.184s-.432.275-.576.456a1.67 1.67 0 0 0-.304.576 2.608 2.608 0 0 0-.104.544h3.696zm-3.696 1.44c.032.736.219 1.27.56 1.6.341.33.832.496 1.472.496.459 0 .853-.115 1.184-.344.33-.23.533-.472.608-.728h2c-.32.992-.81 1.701-1.472 2.128-.661.427-1.461.64-2.4.64-.65 0-1.237-.104-1.76-.312a3.66 3.66 0 0 1-1.328-.888 3.997 3.997 0 0 1-.84-1.376 5.037 5.037 0 0 1-.296-1.76c0-.619.101-1.195.304-1.728a4.05 4.05 0 0 1 .864-1.384c.373-.39.819-.696 1.336-.92a4.284 4.284 0 0 1 1.72-.336c.704 0 1.317.136 1.84.408.523.272.952.637 1.288 1.096.336.459.579.981.728 1.568.15.587.203 1.2.16 1.84H73.99zm7.812-4.688V15h2.272v-3.728c0-.373.037-.72.112-1.04.075-.32.2-.6.376-.84s.408-.43.696-.568c.288-.139.64-.208 1.056-.208a4.364 4.364 0 0 1 .816.08V6.584a1.772 1.772 0 0 0-.496-.08c-.288 0-.565.043-.832.128a3.049 3.049 0 0 0-.752.36 2.83 2.83 0 0 0-1.056 1.272h-.032V6.728h-2.16z"/><path d="M11.586 6.182c.768-2.45 1.707-4.039 2.787-5.19.805-.859 1.221-1.132.748-.186.209-.171.51-.399.743-.52 1.306-.63 1.213-.102.313.464 2.458-.898 2.372.246-.226.816 2.124.041 4.384 1.424 5.033 4.364.09.406-.017.368.39.442.88.159 1.708.15 2.514-.113-.086.609-.872 1.004-2.098 1.265-.455.097-.548.071-.003.196.67.155 1.42.195 2.213.157-.617.726-1.603 1.098-2.82 1.113-.761 2.845-2.502 4.88-4.704 6.16-5.172 3-12.7 2.565-16.476-2.89 2.478 1.988 6.148 2.426 8.873-.344-1.786 0-2.248-1.368-.832-2.106-1.341-.014-2.193-.447-2.693-1.233-.19-.298-.192-.32.118-.55.34-.251.803-.363 1.284-.4-1.388-.407-2.235-1.148-2.53-2.142-.097-.329-.112-.312.215-.397.32-.083.732-.127 1.1-.146-1.089-.675-1.74-1.503-1.906-2.42-.157-.864.005-.642.638-.394 2.829 1.105 5.65 2.294 7.32 4.054z" fill-rule="nonzero"/></g></svg>