<svg width="61" height="61" viewBox="0 0 61 61" xmlns="http://www.w3.org/2000/svg"><title>Icon</title><g fill="none"><path d="M39.061 54.525L51.79 41.813l.707 1.091c.9 1.348.579 3.21-.836 4.11L31.605 60.496c-1.35.899-3.214.577-4.114-.835L3.45 23.963c-.193-.32-.321-.642-.45-.963l31.626 31.59c1.221 1.155 3.214 1.155 4.435-.065z" fill="#78768D"/><path d="M23.19 0H5.976A2.97 2.97 0 0 0 3 2.98v17.234c0 .777.324 1.554.906 2.138l30.737 30.773c1.165 1.167 3.106 1.167 4.27 0l17.213-17.233c1.165-1.166 1.165-3.11 0-4.276L25.325.842C24.807.26 24.03 0 23.189 0zM9.146 9.653a3.04 3.04 0 0 1 3.495-3.498 3.023 3.023 0 0 1 2.523 2.526 3.04 3.04 0 0 1-3.494 3.499c-1.294-.13-2.33-1.231-2.524-2.527z" fill="#A09EAF"/></g></svg>