<svg width="61" height="61" viewBox="0 0 61 61" xmlns="http://www.w3.org/2000/svg"><title>Icon</title><g fill="none"><path d="M59.32 11.474L49.557 1.71a5.405 5.405 0 0 0-7.643 0l-15.08 15.08a5.406 5.406 0 0 0 0 7.644l9.763 9.763a5.405 5.405 0 0 0 7.644 0l15.08-15.08a5.405 5.405 0 0 0 0-7.643zM43.21 28.025a3.169 3.169 0 0 1-4.481 0l-5.723-5.723a3.169 3.169 0 0 1 0-4.48l9.94-9.94a3.169 3.169 0 0 1 4.48 0l5.723 5.723a3.168 3.168 0 0 1 0 4.48l-9.94 9.94zm-9.013 8.572l-9.763-9.763a5.405 5.405 0 0 0-7.644 0L1.711 41.914a5.405 5.405 0 0 0 0 7.643l9.763 9.763a5.405 5.405 0 0 0 7.644 0l15.079-15.08a5.405 5.405 0 0 0 0-7.643zM18.086 53.15a3.168 3.168 0 0 1-4.48 0l-5.724-5.723a3.168 3.168 0 0 1 0-4.48l9.94-9.94a3.169 3.169 0 0 1 4.48 0l5.723 5.723a3.169 3.169 0 0 1 0 4.48l-9.94 9.94z" fill="#93AB23"/><path d="M41.877 19.591l-.468-.468a3.845 3.845 0 0 0-5.431 0L19.123 35.978a3.845 3.845 0 0 0 0 5.431l.468.468a3.845 3.845 0 0 0 5.431 0l16.855-16.855a3.844 3.844 0 0 0 0-5.43z" fill="#93AB23"/><path d="M24.073 41.211a2.693 2.693 0 0 1-3.808 0l-.476-.476a2.693 2.693 0 0 1 0-3.808l17.138-17.138a2.693 2.693 0 0 1 3.808 0l.476.476a2.693 2.693 0 0 1 0 3.808L24.073 41.211z" fill="#D8E3A6"/></g></svg>