<svg width="16" height="16" viewBox="0 0 16 16" xmlns="http://www.w3.org/2000/svg"><title>Shape</title><path d="M6.55 12.303l-1.097 1.096a2.02 2.02 0 0 1-2.8-.049 2.015 2.015 0 0 1-.056-2.797l3.338-3.34a2.022 2.022 0 0 1 2.854 0l.014-.014c.262.26.684.26.946 0l.464-.463a.672.672 0 0 0 0-.946 4.027 4.027 0 0 0-5.693 0L1.177 9.13a4.024 4.024 0 0 0 .006 5.694 4.032 4.032 0 0 0 5.699-.006l2.113-2.112a5.377 5.377 0 0 1-2.445-.403zm8.27-11.126a4.03 4.03 0 0 0-5.692 0L7.014 3.298a5.38 5.38 0 0 1 2.42.41l1.102-1.1a2.021 2.021 0 0 1 2.857-.009c.791.786.795 2.064.008 2.855l-3.338 3.34a2.022 2.022 0 0 1-2.854 0 .67.67 0 0 0-.946 0l-.464.463a.67.67 0 0 0 0 .946l-.017.014a4.03 4.03 0 0 0 5.693 0l3.346-3.34a4.02 4.02 0 0 0 0-5.688v-.012z" fill="#6C6B80"/></svg>