<svg width="1021" height="244" viewBox="0 0 1021 244" xmlns="http://www.w3.org/2000/svg" xmlns:xlink="http://www.w3.org/1999/xlink"><title>Group 23</title><defs><path id="a" d="M0 .016h243.985V244H0z"/></defs><g fill="none" fill-rule="evenodd"><path d="M441.005 87.105h31.122v13.876h.594c7.532-10.903 17.245-16.85 31.32-16.85 22.201 0 35.285 15.859 35.285 38.457v66.01h-32.312V129.13c0-10.705-5.351-18.04-15.858-18.04-10.704 0-17.84 8.92-17.84 21.409v56.099h-32.311V87.105zm-3.522-27.154c0-10.705-8.678-19.382-19.382-19.382s-19.382 8.677-19.382 19.382c0 10.704 8.678 19.381 19.382 19.381s19.382-8.677 19.382-19.38m329.093 25.687a36.286 36.286 0 0 0-3.216-.12c-12.29 0-20.615 5.352-27.752 17.444h-.594V87.105H704.09v101.492h32.31v-45.592c0-21.125 11.7-30.914 30.176-29.206v-28.16zm158.564 38.93c-12.886-2.378-24.383-3.369-24.383-10.505 0-6.344 6.146-9.317 14.074-9.317 8.92 0 15.066 2.775 16.255 11.894h29.735c-1.586-20.021-17.048-32.51-45.79-32.51-23.987 0-43.81 11.101-43.81 32.51 0 23.786 18.832 28.544 36.475 31.518 13.48 2.379 25.77 3.37 25.77 12.488 0 6.542-6.146 10.11-15.859 10.11-9.745 0-16.19-4.123-18.166-12.488h-30.789c2.266 20.864 20.58 33.5 49.153 33.5 26.563 0 46.187-11.497 46.187-33.698 0-25.969-21.012-30.528-38.853-33.502m-108.44-17.444c10.506 0 18.038 7.731 19.228 19.824h-40.042c2.18-12.093 8.524-19.824 20.814-19.824m1.784 61.252c-13.282 0-20.814-8.523-22.797-22.2h72.949c.198-20.616-5.748-38.259-17.841-49.359-8.722-7.929-20.22-12.687-34.691-12.687-30.923 0-52.133 23.192-52.133 53.522 0 30.724 20.616 53.918 54.116 53.918 12.884 0 23.193-3.37 31.717-9.317 8.92-6.145 14.867-14.867 17.047-23.985h-31.518c-2.776 6.343-8.325 10.108-16.85 10.108m202.417-3.712c-1.497.059-3.507.146-5.354.146-6.939 0-11.299-1.983-11.299-9.912v-47.575h16.653v-20.22h-16.653V54.993h-31.519v32.113h-9.917v20.219h9.917v54.513c0 21.806 13.48 27.95 32.312 27.95 7.185 0 12.616-.538 15.86-1.171v-23.951zm-618.954 23.933h32.312V87.105h-32.312zm195.083-23.888c-1.289.05-2.777.1-4.167.1-6.937 0-11.299-1.982-11.299-9.911v-47.575h15.466v-20.22h-15.466V54.993h-31.518v32.113h-10.51v20.219h10.51v54.513c0 21.806 13.479 27.95 32.311 27.95 6.372 0 11.361-.424 14.673-.961V164.71z" fill="#FEFEFE"/><path d="M667.408 126.949c-1.19-12.092-8.723-19.824-19.23-19.824-12.29 0-18.632 7.732-20.813 19.824h40.043zm-71.957 10.704c0-30.33 21.21-53.521 52.134-53.521 14.47 0 25.968 4.757 34.69 12.686 12.092 11.1 18.038 28.743 17.84 49.359h-72.947c1.98 13.677 9.514 22.2 22.796 22.2 8.523 0 14.074-3.765 16.848-10.108h31.519c-2.181 9.118-8.127 17.84-17.048 23.986-8.523 5.946-18.831 9.316-31.716 9.316-33.501 0-54.116-23.193-54.116-53.918zM345.832 113.47c12.687 0 19.823-7.534 19.823-18.834 0-11.298-7.335-18.236-19.823-18.236h-24.78v37.07h24.78zM288.34 46.863h56.11c17.245 0 29.932 4.757 38.654 13.083 9.12 8.523 14.273 20.616 14.273 34.888 0 27.157-18.832 46.386-47.972 46.386h-28.353v47.376H288.34V46.864z" fill="#FEFEFE"/><g transform="translate(0 -.016)"><mask id="b" fill="#fff"><use xlink:href="#a"/></mask><path d="M121.992.016C54.618.016 0 54.634 0 122.008c0 51.682 32.155 95.863 77.535 113.638-1.066-9.652-2.03-24.496.423-35.033 2.217-9.521 14.305-60.638 14.305-60.638s-3.65-7.308-3.65-18.112c0-16.963 9.833-29.627 22.075-29.627 10.408 0 15.435 7.814 15.435 17.184 0 10.467-6.664 26.116-10.103 40.618-2.874 12.142 6.089 22.044 18.065 22.044 21.682 0 38.349-22.862 38.349-55.863 0-29.21-20.988-49.631-50.957-49.631-34.711 0-55.085 26.035-55.085 52.94 0 10.486 4.039 21.729 9.079 27.84.997 1.209 1.143 2.267.846 3.5-.926 3.853-2.984 12.139-3.388 13.835-.532 2.233-1.768 2.707-4.08 1.63-15.236-7.091-24.762-29.367-24.762-47.26 0-38.481 27.96-73.822 80.605-73.822 42.319 0 75.206 30.156 75.206 70.457 0 42.043-26.51 75.879-63.303 75.879-12.362 0-23.983-6.422-27.961-14.008 0 0-6.117 23.292-7.6 29-2.754 10.596-10.19 23.878-15.162 31.98 11.414 3.535 23.544 5.44 36.12 5.44 67.375 0 121.993-54.617 121.993-121.991S189.367.016 121.992.016" fill="#FEFEFE" mask="url(#b)"/></g></g></svg>