<svg width="24" height="24" viewBox="0 0 24 24" xmlns="http://www.w3.org/2000/svg" xmlns:xlink="http://www.w3.org/1999/xlink"><title>Shape</title><defs><rect id="a" width="960" height="274" rx="5"/></defs><g fill="none" fill-rule="evenodd"><g transform="matrix(1 0 0 -1 -28 254)"><use fill="#F7F7F7" xlink:href="#a"/><rect stroke="#E1E0E5" x=".5" y=".5" width="959" height="273" rx="5"/></g><path d="M21.333 0H2.667C1.187 0 0 1.2 0 2.667v18.666A2.666 2.666 0 0 0 2.667 24h18.666C22.8 24 24 22.8 24 21.333V2.667C24 1.2 22.8 0 21.333 0zm-2.666 13.333h-5.334v5.334h-2.666v-5.334H5.333v-2.666h5.334V5.333h2.666v5.334h5.334v2.666z" fill="#93AB23"/></g></svg>