<svg width="22" height="24" viewBox="0 0 22 24" xmlns="http://www.w3.org/2000/svg"><title>Icon / BadgeAward</title><g fill="none" fill-rule="evenodd"><path d="M-1 0h24v24H-1z"/><path d="M20.344 5.334L11.545.248a1.814 1.814 0 0 0-1.83 0l-8.8 5.086C.356 5.664 0 6.275 0 6.911v10.172c0 .661.356 1.271.915 1.577l8.8 5.086c.28.152.584.254.915.254.33 0 .636-.076.915-.254l8.8-5.086a1.86 1.86 0 0 0 .915-1.577V6.91c0-.636-.356-1.246-.916-1.577zM9.434 15.608l-3.509-3.51 1.297-1.296 2.213 2.212 4.603-4.603 1.297 1.297-5.9 5.9z" fill="#BCBBC7" fill-rule="nonzero"/></g></svg>